<?xml version="1.0" standalone="no"?>
<!DOCTYPE svg PUBLIC "-//W3C//DTD SVG 20010904//EN"
 "http://www.w3.org/TR/2001/REC-SVG-20010904/DTD/svg10.dtd">
<svg version="1.0" xmlns="http://www.w3.org/2000/svg"
 width="365.000000pt" height="365.000000pt" viewBox="0 0 365.000000 365.000000"
 preserveAspectRatio="xMidYMid meet">
<metadata>
Created by potrace 1.11, written by Peter Selinger 2001-2013
</metadata>
<g transform="translate(0.000000,365.000000) scale(0.100000,-0.100000)"
fill="#000000" stroke="none">
<path d="M1370 2960 c-114 -24 -234 -91 -300 -169 -57 -66 -118 -188 -134
-267 -3 -10 -10 -41 -17 -69 -9 -37 -13 -249 -14 -830 -1 -429 0 -784 2 -790
2 -7 346 -10 1006 -10 l1002 1 2 469 c2 580 -5 646 -87 810 -92 187 -242 277
-460 278 -52 0 -108 -3 -123 -6 -45 -9 -101 -29 -111 -38 -19 -17 -23 -9 -30
49 -21 183 -84 331 -182 426 -106 103 -221 147 -394 152 -63 2 -135 -1 -160
-6z m278 -274 c114 -38 187 -141 218 -306 6 -35 13 -300 7 -300 -1 0 -11 17
-22 38 -26 51 -110 133 -169 165 -137 75 -359 75 -491 2 -24 -14 -45 -25 -46
-25 -9 0 7 134 25 199 23 85 88 174 151 207 84 43 230 52 327 20z m844 -593
c57 -26 108 -77 136 -136 22 -47 56 -196 47 -205 -6 -7 -506 -10 -540 -4 -20
3 -21 10 -19 135 1 166 -2 152 36 179 87 61 240 75 340 31z m-924 -33 c79 -21
144 -89 176 -185 25 -72 31 -125 14 -126 -81 -4 -601 -2 -604 3 -2 3 1 30 7
60 30 140 108 235 210 253 18 3 35 8 37 10 7 6 120 -4 160 -15z m185 -569 l27
-1 0 -205 0 -205 -320 0 -319 0 -1 204 c0 125 4 206 10 208 8 2 517 2 603 -1z
m928 -13 c1 -23 1 -352 0 -378 -1 -20 -6 -20 -333 -18 l-332 3 1 199 c1 121 5
201 11 205 6 3 155 6 331 6 299 0 321 -1 322 -17z"/>
</g>
</svg>
